<svg width="1024" height="1024" viewBox="7 5 66 66" xmlns="http://www.w3.org/2000/svg">
  <defs>
    <linearGradient id="bg" x1="0" y1="0" x2="1" y2="1">
      <stop offset="0%" stop-color="#7F77DD"/>
      <stop offset="100%" stop-color="#AFA9EC"/>
    </linearGradient>
  </defs>
  <rect x="-10" y="-10" width="100" height="100" fill="url(#bg)"/>
  <path d="M22 59Q24 53 28 53Q34 57 40 57Q46 57 52 53Q56 53 58 59Z" fill="white" opacity="0.1"/>
  <path d="M22 59Q24 53 28 53" fill="none" stroke="white" stroke-width="1.5" stroke-linecap="round" opacity="0.3"/>
  <path d="M58 59Q56 53 52 53" fill="none" stroke="white" stroke-width="1.5" stroke-linecap="round" opacity="0.3"/>
  <path d="M28 55Q34 59 40 59Q46 59 52 55" fill="none" stroke="white" stroke-width="1.2" stroke-linecap="round" opacity="0.2"/>
  <circle cx="40" cy="35" r="20" fill="white" fill-opacity="0.12" stroke="white" stroke-width="0.2" stroke-opacity="0.4"/>
  <path transform="translate(30.46, 47.24)" d="M13.67 -9.00 L12.28 -17.66 L6.97 -9.00 Z M11.28 -0.00 L11.52 -1.03 Q12.00 -1.08 12.65 -1.16 Q13.30 -1.25 13.66 -1.36 Q14.14 -1.52 14.38 -1.69 Q14.62 -1.86 14.62 -2.22 Q14.62 -2.34 14.44 -3.75 Q14.25 -5.16 13.91 -7.70 L6.12 -7.70 Q5.61 -6.89 5.03 -5.82 Q4.45 -4.75 4.14 -4.19 Q3.86 -3.69 3.60 -3.07 Q3.34 -2.45 3.34 -2.25 Q3.34 -1.73 4.17 -1.42 Q5.00 -1.11 6.25 -1.03 L6.02 -0.00 L-2.50 -0.00 L-2.27 -1.03 Q-1.86 -1.06 -1.21 -1.21 Q-0.56 -1.36 -0.12 -1.61 Q0.42 -1.92 0.93 -2.38 Q1.44 -2.84 2.02 -3.77 Q4.72 -8.05 7.95 -13.30 Q11.17 -18.55 13.62 -22.48 L14.88 -22.48 L17.83 -3.28 Q17.92 -2.70 18.14 -2.30 Q18.36 -1.91 18.80 -1.56 Q19.11 -1.34 19.64 -1.20 Q20.17 -1.05 20.58 -1.03 L20.34 -0.00 Z" fill="white" opacity="0.9"/>
  <circle cx="29" cy="23" r="5" fill="white" opacity="0.08"/>
  <circle cx="28" cy="22" r="2" fill="white" opacity="0.3"/>
</svg>
