<svg width="1024" height="1024" viewBox="7 5 66 66" xmlns="http://www.w3.org/2000/svg">
  <defs>
    <linearGradient id="bg" x1="0" y1="0" x2="1" y2="1">
      <stop offset="0%" stop-color="#7F77DD"/>
      <stop offset="100%" stop-color="#AFA9EC"/>
    </linearGradient>
  </defs>
  <rect x="-10" y="-10" width="100" height="100" fill="url(#bg)"/>
  <path d="M22 60Q24 54 28 54Q34 58 40 58Q46 58 52 54Q56 54 58 60Z" fill="white" opacity="0.1"/>
  <path d="M22 60Q24 54 28 54" fill="none" stroke="white" stroke-width="1.5" stroke-linecap="round" opacity="0.3"/>
  <path d="M58 60Q56 54 52 54" fill="none" stroke="white" stroke-width="1.5" stroke-linecap="round" opacity="0.3"/>
  <path d="M28 56Q34 60 40 60Q46 60 52 56" fill="none" stroke="white" stroke-width="1.2" stroke-linecap="round" opacity="0.2"/>
  <circle cx="40" cy="34" r="20" fill="white" opacity="0.05" stroke="white" stroke-width="1.2"/>
  <text x="40" y="35" text-anchor="middle" dominant-baseline="central" font-family="Georgia, serif" font-size="32" fill="white" opacity="0.9" font-style="italic">A</text>
  <circle cx="29" cy="22" r="5" fill="white" opacity="0.08"/>
  <circle cx="28" cy="21" r="2" fill="white" opacity="0.3"/>
</svg>
