<svg width="1024" height="1024" viewBox="7 5 66 66" xmlns="http://www.w3.org/2000/svg">
  <defs>
    <linearGradient id="bg" x1="0" y1="0" x2="1" y2="1">
      <stop offset="0%" stop-color="#7F77DD"/>
      <stop offset="100%" stop-color="#AFA9EC"/>
    </linearGradient>
  </defs>
  <rect x="-10" y="-10" width="100" height="100" fill="url(#bg)"/>
  <path d="M22 59Q24 53 28 53Q34 57 40 57Q46 57 52 53Q56 53 58 59Z" fill="white" opacity="0.1"/>
  <path d="M22 59Q24 53 28 53" fill="none" stroke="white" stroke-width="1.5" stroke-linecap="round" opacity="0.3"/>
  <path d="M58 59Q56 53 52 53" fill="none" stroke="white" stroke-width="1.5" stroke-linecap="round" opacity="0.3"/>
  <path d="M28 55Q34 59 40 59Q46 59 52 55" fill="none" stroke="white" stroke-width="1.2" stroke-linecap="round" opacity="0.2"/>
  <circle cx="40" cy="35" r="20" fill="white" fill-opacity="0.12" stroke="white" stroke-width="0.2" stroke-opacity="0.4"/>
  <text x="40" y="36" text-anchor="middle" dominant-baseline="central" font-family="Georgia, serif" font-size="32" fill="white" opacity="0.9" font-style="italic">A</text>
  <circle cx="29" cy="23" r="5" fill="white" opacity="0.08"/>
  <circle cx="28" cy="22" r="2" fill="white" opacity="0.3"/>
</svg>
